<svg version="1.2" xmlns="http://www.w3.org/2000/svg" viewBox="0 0 240 240" width="240" height="240">
	<title>Telegram_logo-svg</title>
	<defs>
		<linearGradient id="g1" x1="120" y1="240" x2="120" y2="0" gradientUnits="userSpaceOnUse">
			<stop offset="0" stop-color="#ffffff"/>
			<stop offset="1" stop-color="#ffffff"/>
		</linearGradient>
	</defs>
	<style>
		.s0 { fill: url(#g1) } 
		.s1 { fill: #261334 } 
	</style>
	<path id="Layer" class="s0" d="m120 240c-66.4 0-120-53.6-120-120c0-66.4 53.6-120 120-120c66.4 0 120 53.6 120 120c0 66.4-53.6 120-120 120z" />
	<path id="Layer" class="s1" d="m81.5 130.2l-29.3-9.6c0 0-3.5-1.4-2.4-4.6c0.3-0.7 0.7-1.2 2.1-2.2c6.5-4.5 120.1-45.4 120.1-45.4c0 0 3.2-1 5.1-0.3q0.4 0.1 0.7 0.3q0.3 0.2 0.6 0.4q0.2 0.3 0.4 0.6q0.1 0.4 0.2 0.7q0.1 0.3 0.1 0.7q0.1 0.3 0.1 0.6q0.1 0.3 0.1 0.7q0 0.3 0 0.6c0 0.8-0.1 1.5-0.2 2.6c-0.7 11.1-21.4 94.4-21.4 94.4c0 0-1.2 4.9-5.7 5.1q-0.8 0-1.6-0.1q-0.8-0.2-1.6-0.5q-0.7-0.2-1.4-0.7q-0.7-0.4-1.3-1c-8.7-7.5-38.8-27.7-45.5-32.2q-0.1-0.1-0.2-0.2q-0.1-0.1-0.1-0.2q-0.1-0.1-0.2-0.2q0-0.1 0-0.3c-0.1-0.4 0.4-1 0.4-1c0 0 52.4-46.6 53.8-51.5c0.1-0.4-0.3-0.6-0.8-0.4c-3.5 1.3-63.9 39.4-70.5 43.6q-0.2 0-0.4 0.1q-0.2 0-0.4 0q-0.2 0-0.3 0q-0.2 0-0.4 0z" />
</svg>